<svg width="20" height="20" viewBox="0 0 20 20" fill="none" xmlns="http://www.w3.org/2000/svg">
<g opacity="0.6">
<path d="M17.0677 2.92614C13.1704 -0.97538 6.82957 -0.97538 2.93233 2.92614C1.0401 4.82045 0 7.32947 0 10.0016C0 12.6737 1.0401 15.1952 2.93233 17.077C4.88721 19.034 7.44361 20 10 20C12.5564 20 15.1253 19.0215 17.0677 17.077C18.9599 15.1827 20 12.6737 20 10.0016C20 7.32947 18.9474 4.8079 17.0677 2.92614ZM16.178 16.1863C12.7694 19.5986 7.21805 19.5986 3.80953 16.1863C2.15539 14.5303 1.25313 12.335 1.25313 9.98902C1.25313 7.65564 2.16792 5.4477 3.80953 3.80429C5.51379 2.09816 7.75689 1.2451 9.98747 1.2451C12.2306 1.2451 14.4737 2.09816 16.178 3.80429C17.8321 5.46025 18.7343 7.65564 18.7343 9.98902C18.7469 12.335 17.8321 14.5303 16.178 16.1863Z" fill="black"/>
<path d="M13.4209 11.2686C15.0876 11.2686 16.441 9.91373 16.441 8.24523C16.441 6.57673 15.0876 5.22186 13.4209 5.22186C11.7543 5.22186 10.4009 6.57673 10.4009 8.24523C10.4009 9.91373 11.7543 11.2686 13.4209 11.2686ZM13.4209 6.47637C14.3984 6.47637 15.1878 7.26671 15.1878 8.24523C15.1878 9.22375 14.3984 10.0141 13.4209 10.0141C12.4435 10.0141 11.654 9.22375 11.654 8.24523C11.654 7.26671 12.4435 6.47637 13.4209 6.47637Z" fill="black"/>
<path d="M14.1353 11.2686H12.8697C11.2907 11.2686 10 12.5608 10 14.1414H11.2531C11.2531 13.2507 11.9799 12.5231 12.8697 12.5231H14.1353C15.0251 12.5231 15.7519 13.2507 15.7519 14.1414H17.005C16.9925 12.5608 15.7143 11.2686 14.1353 11.2686Z" fill="black"/>
<path d="M8.64665 6.89038H3.65918V8.14489H8.64665V6.89038Z" fill="black"/>
<path d="M8.59652 9.53738H3.62158V10.7919H8.59652V9.53738Z" fill="black"/>
<path d="M8.59652 12.1844H3.62158V13.4389H8.59652V12.1844Z" fill="black"/>
</g>
</svg>
