<svg width="190" height="25" viewBox="0 0 190 25" fill="none" xmlns="http://www.w3.org/2000/svg">
<path d="M35.8334 23.7774V0H40.5965L46.2569 16.8356C46.7789 18.4034 47.1595 19.5766 47.3987 20.3551C47.6706 19.4901 48.0947 18.2196 48.6711 16.5436L54.3967 0H58.6542V23.7774H55.6038V3.8764L48.6548 23.7774H45.8001L38.8838 3.53579V23.7774H35.8334Z" fill="white"/>
<path d="M74.738 23.7774V21.2472C73.3895 23.1935 71.5571 24.1667 69.2408 24.1667C68.2185 24.1667 67.2616 23.972 66.3698 23.5828C65.489 23.1935 64.831 22.7069 64.396 22.123C63.9719 21.5283 63.6729 20.8039 63.4989 19.9497C63.3793 19.3766 63.3194 18.4683 63.3194 17.2248V6.55257H66.2556V16.1057C66.2556 17.6303 66.3155 18.6575 66.4351 19.1874C66.6199 19.9551 67.0114 20.5606 67.6096 21.0039C68.2077 21.4364 68.9472 21.6527 69.828 21.6527C70.7089 21.6527 71.5354 21.431 72.3075 20.9877C73.0796 20.5336 73.6233 19.9226 73.9387 19.1549C74.2649 18.3764 74.4281 17.2519 74.4281 15.7813V6.55257H77.3643V23.7774H74.738Z" fill="white"/>
<path d="M81.9154 23.7774V0H84.8516V23.7774H81.9154Z" fill="white"/>
<path d="M95.8297 21.1661L96.2538 23.745C95.4273 23.918 94.6878 24.0045 94.0353 24.0045C92.9696 24.0045 92.1431 23.8369 91.5559 23.5017C90.9686 23.1665 90.5554 22.7286 90.3161 22.1879C90.0769 21.6365 89.9573 20.4849 89.9573 18.7332V8.82327H87.8041V6.55257H89.9573V2.28691L92.8772 0.535235V6.55257H95.8297V8.82327H92.8772V18.8954C92.8772 19.728 92.9261 20.2632 93.024 20.5011C93.1327 20.739 93.3013 20.9282 93.5296 21.0688C93.7689 21.2094 94.106 21.2796 94.541 21.2796C94.8673 21.2796 95.2968 21.2418 95.8297 21.1661Z" fill="white"/>
<path d="M98.7332 3.35738V0H101.669V3.35738H98.7332ZM98.7332 23.7774V6.55257H101.669V23.7774H98.7332Z" fill="white"/>
<path d="M106.579 23.7774V0H117.182C119.314 0 120.934 0.216257 122.043 0.64877C123.153 1.07047 124.039 1.82196 124.702 2.90324C125.366 3.98453 125.697 5.17934 125.697 6.4877C125.697 8.1745 125.148 9.59638 124.05 10.7534C122.951 11.9103 121.255 12.6456 118.96 12.9592C119.798 13.3592 120.434 13.7539 120.869 14.1432C121.793 14.9866 122.669 16.0408 123.495 17.3059L127.655 23.7774H123.675L120.51 18.8305C119.586 17.4032 118.824 16.3111 118.226 15.5543C117.628 14.7974 117.09 14.2675 116.611 13.9648C116.144 13.662 115.665 13.4512 115.176 13.3322C114.817 13.2565 114.23 13.2187 113.414 13.2187H109.744V23.7774H106.579ZM109.744 10.4938H116.546C117.993 10.4938 119.124 10.3479 119.939 10.0559C120.755 9.75317 121.375 9.2774 121.799 8.62864C122.223 7.96905 122.435 7.25541 122.435 6.4877C122.435 5.36316 122.022 4.43866 121.195 3.71421C120.38 2.98975 119.085 2.62752 117.313 2.62752H109.744V10.4938Z" fill="white"/>
<path d="M141.602 21.6527C140.514 22.5718 139.465 23.2205 138.453 23.599C137.453 23.9774 136.376 24.1667 135.224 24.1667C133.321 24.1667 131.858 23.7071 130.836 22.788C129.813 21.8581 129.302 20.6741 129.302 19.236C129.302 18.3926 129.493 17.6249 129.873 16.9329C130.265 16.2301 130.77 15.6678 131.39 15.2461C132.021 14.8244 132.728 14.5054 133.511 14.2892C134.087 14.1378 134.957 13.9918 136.121 13.8512C138.492 13.5701 140.237 13.2349 141.357 12.8456C141.368 12.4456 141.373 12.1915 141.373 12.0833C141.373 10.8939 141.096 10.0559 140.541 9.56935C139.791 8.90977 138.676 8.57998 137.197 8.57998C135.816 8.57998 134.794 8.82327 134.131 9.30984C133.478 9.78561 132.994 10.6344 132.679 11.8563L129.808 11.467C130.069 10.2452 130.499 9.26119 131.097 8.5151C131.695 7.7582 132.559 7.17972 133.69 6.77964C134.821 6.36875 136.132 6.16331 137.622 6.16331C139.101 6.16331 140.302 6.33632 141.227 6.68233C142.151 7.02834 142.831 7.46626 143.266 7.99609C143.701 8.5151 144.005 9.17468 144.179 9.97483C144.277 10.4722 144.326 11.3697 144.326 12.6672V16.5598C144.326 19.2739 144.386 20.9931 144.505 21.7176C144.636 22.4312 144.886 23.1178 145.256 23.7774H142.189C141.884 23.1719 141.689 22.4636 141.602 21.6527ZM141.357 15.1326C140.291 15.5651 138.693 15.9327 136.561 16.2355C135.354 16.4085 134.5 16.6031 134 16.8194C133.5 17.0356 133.114 17.3546 132.842 17.7763C132.57 18.1872 132.434 18.6467 132.434 19.1549C132.434 19.9334 132.728 20.5822 133.315 21.1012C133.913 21.6202 134.783 21.8798 135.925 21.8798C137.056 21.8798 138.062 21.6365 138.943 21.1499C139.824 20.6525 140.471 19.9767 140.884 19.1225C141.199 18.4629 141.357 17.4897 141.357 16.203V15.1326Z" fill="white"/>
<path d="M155.304 21.1661L155.728 23.745C154.902 23.918 154.162 24.0045 153.51 24.0045C152.444 24.0045 151.617 23.8369 151.03 23.5017C150.443 23.1665 150.03 22.7286 149.79 22.1879C149.551 21.6365 149.432 20.4849 149.432 18.7332V8.82327H147.278V6.55257H149.432V2.28691L152.351 0.535235V6.55257H155.304V8.82327H152.351V18.8954C152.351 19.728 152.4 20.2632 152.498 20.5011C152.607 20.739 152.776 20.9282 153.004 21.0688C153.243 21.2094 153.58 21.2796 154.015 21.2796C154.342 21.2796 154.771 21.2418 155.304 21.1661Z" fill="white"/>
<path d="M170.05 18.2304L173.084 18.6035C172.606 20.366 171.719 21.7338 170.425 22.7069C169.131 23.6801 167.478 24.1667 165.466 24.1667C162.933 24.1667 160.921 23.3936 159.431 21.8473C157.952 20.2903 157.213 18.1115 157.213 15.311C157.213 12.4131 157.963 10.1641 159.464 8.56376C160.964 6.96346 162.911 6.16331 165.303 6.16331C167.62 6.16331 169.512 6.94724 170.98 8.5151C172.448 10.083 173.182 12.2888 173.182 15.1326C173.182 15.3056 173.177 15.5651 173.166 15.9111H160.247C160.355 17.8033 160.894 19.2522 161.861 20.2578C162.829 21.2634 164.036 21.7662 165.483 21.7662C166.559 21.7662 167.478 21.4851 168.24 20.9228C169.001 20.3606 169.604 19.4631 170.05 18.2304ZM160.41 13.5106H170.083C169.952 12.0617 169.583 10.975 168.974 10.2506C168.038 9.12603 166.826 8.56376 165.336 8.56376C163.988 8.56376 162.851 9.01249 161.927 9.90996C161.013 10.8074 160.508 12.0076 160.41 13.5106Z" fill="white"/>
<path d="M175.613 18.6359L178.516 18.1818C178.679 19.3387 179.131 20.2254 179.87 20.8417C180.621 21.4581 181.665 21.7662 183.002 21.7662C184.351 21.7662 185.351 21.4959 186.004 20.9553C186.656 20.4038 186.982 19.7604 186.982 19.0252C186.982 18.3656 186.694 17.8466 186.118 17.4681C185.715 17.2086 184.715 16.8788 183.116 16.4787C180.963 15.9381 179.468 15.4732 178.63 15.0839C177.804 14.6838 177.173 14.1378 176.738 13.4457C176.314 12.7429 176.102 11.9698 176.102 11.1264C176.102 10.3587 176.276 9.65045 176.624 9.00168C176.983 8.3421 177.467 7.79605 178.076 7.36353C178.533 7.02834 179.152 6.7472 179.935 6.52013C180.729 6.28225 181.577 6.16331 182.48 6.16331C183.839 6.16331 185.03 6.35794 186.052 6.7472C187.086 7.13647 187.847 7.66629 188.336 8.33669C188.826 8.99627 189.163 9.88292 189.348 10.9966L186.477 11.3859C186.346 10.4993 185.965 9.80723 185.335 9.30984C184.715 8.81245 183.834 8.56376 182.692 8.56376C181.344 8.56376 180.381 8.78542 179.805 9.22875C179.229 9.67207 178.94 10.1911 178.94 10.7858C178.94 11.1642 179.06 11.5048 179.299 11.8076C179.538 12.1212 179.914 12.3807 180.425 12.5861C180.718 12.6943 181.583 12.943 183.018 13.3322C185.096 13.8837 186.542 14.3378 187.357 14.6946C188.184 15.0406 188.831 15.5488 189.299 16.2192C189.766 16.8896 190 17.7222 190 18.717C190 19.6902 189.712 20.6092 189.135 21.4743C188.57 22.3285 187.749 22.9935 186.672 23.4692C185.596 23.9342 184.378 24.1667 183.018 24.1667C180.767 24.1667 179.049 23.7017 177.864 22.7718C176.689 21.8419 175.939 20.4633 175.613 18.6359Z" fill="white"/>
<path fill-rule="evenodd" clip-rule="evenodd" d="M17.5 10.3284L25 2.82843V22.1716L17.5 14.6716V10.3284ZM14.6716 7.5L22.1716 0H2.82843L10.3284 7.5H14.6716ZM7.5 10.3284L0 2.82843V22.1716L7.5 14.6716V10.3284ZM10.3284 17.5L2.82843 25H22.1716L14.6716 17.5H10.3284Z" fill="white"/>
</svg>
