<svg width="20" height="20" viewBox="0 0 20 20" fill="none" xmlns="http://www.w3.org/2000/svg">
<g opacity="0.6">
<path d="M10 0C4.48622 0 0 4.48623 0 10C0 15.5138 4.48622 20 10 20C15.5138 20 20 15.5138 20 10C20 4.48623 15.5138 0 10 0ZM10 18.7469C5.17544 18.7469 1.25313 14.8246 1.25313 10C1.25313 5.17545 5.17544 1.25313 10 1.25313C14.8246 1.25313 18.7469 5.17545 18.7469 10C18.7469 14.8246 14.8246 18.7469 10 18.7469Z" fill="black"/>
<path d="M7.14251 3.59653H6.46582V4.84966H7.14251V7.14288C7.14251 8.28323 7.70642 9.31079 8.64627 10C7.70642 10.6892 7.14251 11.7293 7.14251 12.8572V15.1504H6.46582V16.4035H7.14251H12.8443H13.521V15.1504H12.8443V12.8572C12.8443 11.7168 12.2804 10.6892 11.3405 10C12.2804 9.31079 12.8443 8.2707 12.8443 7.14288V4.84966H13.521V3.59653H12.8443H7.14251ZM11.6037 15.1629H8.39564V12.8697C8.39564 11.9299 9.00968 11.1028 9.98712 10.6767H9.99966H10.0122C10.9771 11.0903 11.6037 11.9299 11.6037 12.8697V15.1629ZM11.6037 7.14288C11.6037 8.08273 10.9896 8.90979 10.0122 9.33586H9.99966H9.98712C9.02221 8.92232 8.39564 8.08273 8.39564 7.14288V4.84966H11.5911V7.14288H11.6037Z" fill="black"/>
</g>
</svg>
