<svg width="20" height="20" viewBox="0 0 20 20" fill="none" xmlns="http://www.w3.org/2000/svg">
<g opacity="0.6">
<path d="M10 0C4.48622 0 0 4.48622 0 10C0 11.8797 0.538847 13.6466 1.4411 15.1504L1.50376 15.401L1.57895 15.3759C3.3584 18.1579 6.46617 20 10 20C15.5138 20 20 15.5138 20 10C20 4.48622 15.5138 0 10 0ZM2.60652 14.6366L2.3183 13.6341C2.13033 13.2456 2.29323 12.7694 2.6817 12.5815C2.86967 12.4937 3.08271 12.4812 3.28321 12.5439C3.48371 12.6065 3.64662 12.7569 3.73434 12.9449L4.89975 15.3634C5.02506 15.6266 5.31328 15.7644 5.6015 15.7018C5.88972 15.6391 6.09023 15.3885 6.09023 15.0877L6.11529 5.95238C6.11529 5.61404 6.39098 5.33835 6.72932 5.33835C7.06767 5.33835 7.34336 5.61404 7.34336 5.95238L7.3183 11.4536C7.3183 11.6165 7.39348 11.7794 7.50626 11.8922C7.86967 12.2556 8.58396 11.9674 8.58396 11.4536L8.60902 4.82456C8.60902 4.48622 8.88471 4.21053 9.22306 4.21053C9.56141 4.21053 9.83709 4.48622 9.83709 4.82456L9.81203 11.4662C9.81203 11.6291 9.88722 11.792 10 11.9048C10.3634 12.2682 11.0777 11.98 11.0777 11.4662L11.1028 5.96491C11.1028 5.62657 11.3784 5.35088 11.7168 5.35088C12.0551 5.35088 12.3308 5.62657 12.3308 5.96491L12.3058 11.4662C12.3058 11.6291 12.381 11.792 12.4937 11.9048C12.8571 12.2682 13.5714 11.98 13.5714 11.4662L13.5965 7.09273C13.5965 6.75439 13.8722 6.4787 14.2105 6.4787C14.5489 6.4787 14.8246 6.75439 14.8246 7.09273L14.7995 17.2932C13.4211 18.208 11.7669 18.7469 9.98747 18.7469C6.89223 18.7469 4.14787 17.1053 2.60652 14.6366ZM16.0652 16.2907L16.0902 7.09273C16.0902 6.06516 15.2506 5.22556 14.2231 5.22556C13.9599 5.22556 13.7218 5.27569 13.4962 5.37594C13.2456 4.63659 12.5439 4.09774 11.7293 4.09774C11.4662 4.09774 11.2281 4.14787 11.0025 4.24812C10.7519 3.50877 10.0501 2.96992 9.23559 2.96992C8.40852 2.96992 7.70677 3.50877 7.46867 4.24812C7.24311 4.14787 7.00501 4.09774 6.74186 4.09774C5.71429 4.09774 4.87469 4.93734 4.87469 5.96491L4.84962 12.3684C4.34837 11.391 3.14536 10.99 2.15539 11.4662C1.89223 11.5915 1.6792 11.7669 1.50376 11.9674C1.35338 11.3409 1.2782 10.6767 1.2782 10.0125C1.25313 5.17544 5.17544 1.25313 10 1.25313C14.8246 1.25313 18.7469 5.17544 18.7469 10C18.7469 12.4687 17.7193 14.6992 16.0652 16.2907Z" fill="black"/>
</g>
</svg>
